USFL
nRows=279
nColumns=2
inDegrees=yes
endheader
time	tib_ant_r	
3.92515	 37.327345	
3.95842	 37.320930	
3.99168	 37.344286	
4.02494	 37.346586	
4.05821	 37.334537	
4.09147	 37.350729	
4.12474	 37.357672	
4.158	 37.357586	
4.19126	 37.307444	
4.22453	 37.284731	
4.25779	 37.293866	
4.29106	 37.316632	
4.32432	 37.325625	
4.35758	 37.376468	
4.39085	 37.376663	
4.42411	 37.380345	
4.45738	 37.399330	
4.49064	 37.410829	
4.5239	 37.420622	
4.55717	 37.401198	
4.59043	 37.397997	
4.6237	 37.403604	
4.65696	 37.512488	
4.69022	 37.518204	
4.72349	 37.532115	
4.75675	 37.557527	
4.79002	 37.557034	
4.82328	 37.594735	
4.85654	 37.620500	
4.88981	 37.625146	
4.92307	 37.646485	
4.95634	 37.661323	
4.9896	 37.640281	
5.02286	 37.634203	
5.05613	 37.631298	
5.08939	 37.628059	
5.12266	 37.604141	
5.15592	 37.619082	
5.18918	 37.637194	
5.22245	 37.632367	
5.25571	 37.632125	
5.28898	 37.623528	
5.32224	 37.619094	
5.3555	 37.621905	
5.38877	 37.636791	
5.42203	 37.632617	
5.4553	 37.612314	
5.48856	 37.605177	
5.52182	 37.597685	
5.55509	 37.611432	
5.58835	 37.580363	
5.62162	 37.580184	
5.65488	 37.552169	
5.68814	 37.559052	
5.72141	 37.569329	
5.75467	 37.597287	
5.78794	 37.539047	
5.8212	 37.452033	
5.85446	 37.317735	
5.88773	 37.279017	
5.92099	 37.230613	
5.95426	 37.171223	
5.98752	 37.135624	
6.02078	 37.051806	
6.05405	 37.000264	
6.08731	 36.890927	
6.12058	 36.813711	
6.15384	 36.786651	
6.1871	 36.718450	
6.22037	 36.610179	
6.25363	 36.629440	
6.2869	 36.641196	
6.32016	 36.685197	
6.35342	 36.756240	
6.38669	 36.772357	
6.41995	 36.746006	
6.45322	 36.749956	
6.48648	 36.672257	
6.51974	 36.697316	
6.55301	 36.645427	
6.58627	 36.548339	
6.61954	 36.488249	
6.6528	 36.425285	
6.68606	 36.335648	
6.71933	 36.298338	
6.75259	 36.255135	
6.78586	 36.169564	
6.81912	 36.140472	
6.85238	 36.025910	
6.88565	 35.975959	
6.91891	 35.928081	
6.95218	 35.834146	
6.98544	 35.791941	
7.0187	 35.719922	
7.05197	 35.618012	
7.08523	 35.591890	
7.1185	 35.519131	
7.15176	 35.374667	
7.18502	 35.255737	
7.21829	 35.153090	
7.25155	 35.122153	
7.28482	 35.044606	
7.31808	 34.961538	
7.35134	 34.913474	
7.38461	 34.870263	
7.41787	 34.842011	
7.45114	 34.795587	
7.4844	 34.737925	
7.51766	 34.659958	
7.55093	 34.630768	
7.58419	 34.585652	
7.61746	 34.560682	
7.65072	 34.559825	
7.68398	 34.505316	
7.71725	 34.516542	
7.75051	 34.504939	
7.78378	 34.467570	
7.81704	 34.430076	
7.8503	 34.375384	
7.88357	 34.291704	
7.91683	 34.255781	
7.9501	 34.223059	
7.98336	 34.209362	
8.01662	 34.168816	
8.04989	 34.141804	
8.08315	 34.151400	
8.11642	 34.119661	
8.14968	 34.083895	
8.18294	 34.077422	
8.21621	 34.056437	
8.24947	 34.035786	
8.28274	 34.008416	
8.316	 33.991470	
8.34926	 33.974083	
8.38253	 33.959984	
8.41579	 33.962285	
8.44906	 33.964342	
8.48232	 33.965159	
8.51558	 33.971511	
8.54885	 33.986792	
8.58211	 33.984237	
8.61538	 34.029842	
8.64864	 34.070061	
8.6819	 34.087135	
8.71517	 34.108725	
8.74843	 34.116682	
8.7817	 34.121912	
8.81496	 34.131039	
8.84822	 34.132710	
8.88149	 34.132966	
8.91475	 34.139421	
8.94802	 34.113735	
8.98128	 34.118425	
9.01454	 34.127559	
9.04781	 34.121086	
9.08107	 34.123799	
9.11434	 34.144088	
9.1476	 34.146798	
9.18086	 34.138677	
9.21413	 34.140910	
9.24739	 34.133340	
9.28066	 34.130756	
9.31392	 34.145529	
9.34718	 34.141786	
9.38045	 34.138147	
9.41371	 34.135504	
9.44698	 34.141606	
9.48024	 34.123837	
9.5135	 34.137917	
9.54677	 34.146962	
9.58003	 34.135461	
9.6133	 34.135631	
9.64656	 34.143971	
9.67982	 34.130930	
9.71309	 34.118835	
9.74635	 34.133858	
9.77962	 34.152467	
9.81288	 34.161917	
9.84614	 34.133570	
9.87941	 34.144623	
9.91267	 34.154936	
9.94594	 34.188367	
9.9792	 34.236743	
10.0125	 34.275783	
10.0457	 34.351623	
10.079	 34.401958	
10.1123	 34.447196	
10.1455	 34.555318	
10.1788	 34.632993	
10.212	 34.719268	
10.2453	 34.797180	
10.2786	 34.849467	
10.3118	 34.969248	
10.3451	 35.058682	
10.3784	 35.093124	
10.4116	 35.327138	
10.4449	 35.356757	
10.4782	 35.407625	
10.5114	 35.502115	
10.5447	 35.548985	
10.578	 35.607114	
10.6112	 35.696677	
10.6445	 35.738972	
10.6777	 35.784683	
10.711	 35.862779	
10.7443	 35.886544	
10.7775	 36.038048	
10.8108	 36.055208	
10.8441	 36.132492	
10.8773	 36.201427	
10.9106	 36.254636	
10.9439	 36.295405	
10.9771	 36.348665	
11.0104	 36.384901	
11.0436	 36.431771	
11.0769	 36.445656	
11.1102	 36.565916	
11.1434	 36.590752	
11.1767	 36.622753	
11.21	 36.683828	
11.2432	 36.708510	
11.2765	 36.736139	
11.3098	 36.761483	
11.343	 36.777657	
11.3763	 36.780440	
11.4096	 36.794586	
11.4428	 36.804197	
11.4761	 36.858114	
11.5093	 36.849475	
11.5426	 36.880745	
11.5759	 36.890323	
11.6091	 36.861995	
11.6424	 36.893283	
11.6757	 36.922042	
11.7089	 36.946201	
11.7422	 36.950845	
11.7755	 36.995752	
11.8087	 36.971439	
11.842	 37.028994	
11.8752	 37.030256	
11.9085	 37.055168	
11.9418	 37.103853	
11.975	 37.141899	
12.0083	 37.150882	
12.0416	 37.167097	
12.0748	 37.186028	
12.1081	 37.197450	
12.1414	 37.210472	
12.1746	 37.222001	
12.2079	 37.252537	
12.2412	 37.261982	
12.2744	 37.270406	
12.3077	 37.273388	
12.3409	 37.281530	
12.3742	 37.274445	
12.4075	 37.272726	
12.4407	 37.253664	
12.474	 37.261853	
12.5073	 37.242689	
12.5405	 37.227407	
12.5738	 37.227384	
12.6071	 37.221307	
12.6403	 37.219615	
12.6736	 37.216861	
12.7068	 37.202268	
12.7401	 37.198830	
12.7734	 37.205411	
12.8066	 37.223478	
12.8399	 37.226411	
12.8732	 37.228205	
12.9064	 37.242555	
12.9397	 37.213840	
12.973	 37.212404	
13.0062	 37.208691	
13.0395	 37.226556	
13.0728	 37.219119	
13.106	 37.216063	
13.1393	 37.222103	
13.1725	 37.222321	
